<?xml version="1.0" standalone="no"?>
<!DOCTYPE svg PUBLIC "-//W3C//DTD SVG 20010904//EN"
 "http://www.w3.org/TR/2001/REC-SVG-20010904/DTD/svg10.dtd">
<svg version="1.0" xmlns="http://www.w3.org/2000/svg"
 width="764.000000pt" height="461.000000pt" viewBox="0 0 764.000000 461.000000"
 preserveAspectRatio="xMidYMid meet">
<metadata>
Created by potrace 1.16, written by Peter Selinger 2001-2019
</metadata>
<g transform="translate(0.000000,461.000000) scale(0.100000,-0.100000)"
fill="#000000" stroke="none">
<path d="M3555 4585 c-38 -13 -482 -229 -985 -481 -503 -251 -1214 -604 -1578
-785 l-664 -329 -102 -102 c-84 -85 -110 -119 -148 -193 -72 -140 -78 -171
-78 -384 0 -198 7 -245 53 -345 49 -107 158 -238 257 -311 73 -53 3180 -1602
3273 -1631 33 -10 103 -18 195 -21 145 -6 219 3 312 34 25 9 761 372 1635 808
1589 791 1590 792 1663 860 85 79 149 165 193 258 52 112 59 154 59 362 -1
170 -3 197 -23 255 -41 119 -93 198 -202 307 l-102 101 -1079 537 c-1865 928
-2118 1053 -2173 1069 -42 12 -99 16 -245 16 -175 0 -197 -2 -261 -25z m400
-210 c64 -17 133 -51 2017 -989 l1216 -605 66 -66 c108 -108 166 -251 166
-408 0 -149 -56 -283 -165 -393 l-70 -71 -1580 -787 c-869 -433 -1605 -794
-1635 -804 -73 -22 -227 -22 -300 0 -30 10 -766 371 -1635 804 l-1580 787 -70
71 c-223 226 -221 579 3 803 l64 63 1476 736 c1797 895 1685 840 1752 858 73
19 202 20 275 1z"/>
<path d="M3765 4313 c-16 -2 -52 -10 -80 -18 -27 -8 -756 -366 -1619 -795
-1533 -764 -1571 -783 -1628 -840 -160 -161 -189 -422 -67 -612 75 -117 13
-83 1706 -927 862 -431 1592 -789 1622 -797 71 -18 172 -18 241 0 30 8 761
367 1625 797 1702 848 1627 807 1704 928 121 188 92 452 -67 611 -57 56 -97
77 -1628 839 -863 430 -1591 788 -1619 796 -58 16 -147 25 -190 18z m255
-1308 c30 -9 59 -21 65 -26 5 -5 -99 -9 -263 -9 -150 0 -272 2 -272 5 0 8 48
25 115 41 79 18 280 12 355 -11z m304 -176 c25 -22 46 -45 46 -50 0 -5 -224
-9 -550 -9 -306 0 -550 4 -550 9 0 5 20 27 45 50 l45 41 458 0 459 0 47 -41z
m145 -202 c12 -24 21 -46 21 -50 0 -4 -301 -7 -670 -7 -457 0 -670 3 -670 10
0 6 9 29 20 50 l20 40 629 0 629 0 21 -43z m-1332 -71 c-3 -8 -11 -33 -17 -55
l-11 -41 -754 0 c-415 0 -755 3 -755 7 0 4 21 29 47 55 l47 48 724 0 c626 0
723 -2 719 -14z m2855 -33 c26 -26 48 -51 48 -55 0 -5 -340 -7 -756 -6 l-757
3 -13 45 c-8 25 -14 48 -14 53 0 4 325 7 722 7 l722 0 48 -47z m-1457 -113 l7
-50 807 0 807 0 49 -50 49 -50 -856 0 -855 0 -7 -50 -7 -50 -708 0 -709 0 -6
23 c-3 12 -6 34 -6 50 l0 27 719 0 c714 0 720 0 726 20 4 11 4 34 0 50 l-7 30
-719 0 c-696 0 -719 1 -719 19 0 10 3 33 6 50 l7 31 707 0 708 0 7 -50z
m-1445 -100 l0 -50 -852 0 -852 0 49 50 49 50 803 0 803 0 0 -50z m29 -194 c6
-25 11 -47 11 -50 0 -3 -437 -6 -972 -6 l-972 0 49 50 49 50 912 0 912 0 11
-44z m3286 -6 l49 -50 -972 0 c-718 0 -972 3 -972 11 0 7 5 29 12 50 l11 39
911 0 912 0 49 -50z m-1915 -70 c0 -5 -8 -25 -17 -45 l-17 -35 -639 2 -640 3
-18 43 -18 42 674 0 c428 0 675 -4 675 -10z m-140 -207 c0 -4 -12 -20 -27 -35
l-27 -28 -476 0 -476 0 -27 28 c-15 15 -27 31 -27 35 0 4 239 7 530 7 292 0
530 -3 530 -7z"/>
</g>
</svg>
